<svg width="1024" height="753" viewBox="0 0 1024 753" fill="none" xmlns="http://www.w3.org/2000/svg">
<g opacity="0.2" filter="url(#filter0_f_175_198)">
<ellipse cx="512.5" cy="94" rx="670.5" ry="350" fill="#338AF3"/>
</g>
<path d="M33.0349 330C34.5302 330 35.6622 330.63 36.4308 331.891C37.2134 333.138 37.6047 334.953 37.6047 337.336C37.6047 339.719 37.2134 341.541 36.4308 342.802C35.6622 344.063 34.5302 344.693 33.0349 344.693C31.5536 344.693 30.4216 344.063 29.639 342.802C28.8564 341.541 28.4651 339.719 28.4651 337.336C28.4651 334.967 28.8564 333.152 29.639 331.891C30.4216 330.63 31.5536 330 33.0349 330ZM29.9534 337.336C29.9534 339.026 30.1072 340.35 30.4146 341.306L35.0683 332.099C34.5791 331.448 33.9013 331.122 33.0349 331.122C32.0706 331.122 31.316 331.635 30.771 332.66C30.2259 333.672 29.9534 335.23 29.9534 337.336ZM33.0349 343.55C34.0131 343.55 34.7748 343.044 35.3198 342.033C35.8648 341.008 36.1373 339.442 36.1373 337.336C36.1373 335.549 35.9627 334.163 35.6133 333.18L30.9596 342.469C31.4627 343.19 32.1545 343.55 33.0349 343.55Z" fill="url(#paint0_linear_175_198)" fill-opacity="0.6"/>
<path d="M34.2926 367.135H37.3741V368.236H29.3874V367.135H32.9511V355.455L29.5551 357.471L28.9682 356.536L33.1607 353.959H34.2926V367.135Z" fill="url(#paint1_linear_175_198)" fill-opacity="0.6"/>
<path d="M33.0349 377.502C34.5302 377.502 35.6622 378.133 36.4308 379.393C37.2134 380.64 37.6047 382.455 37.6047 384.838C37.6047 387.221 37.2134 389.043 36.4308 390.304C35.6622 391.565 34.5302 392.195 33.0349 392.195C31.5536 392.195 30.4216 391.565 29.639 390.304C28.8564 389.043 28.4651 387.221 28.4651 384.838C28.4651 382.469 28.8564 380.654 29.639 379.393C30.4216 378.133 31.5536 377.502 33.0349 377.502ZM29.9534 384.838C29.9534 386.529 30.1072 387.852 30.4146 388.808L35.0683 379.601C34.5791 378.95 33.9013 378.624 33.0349 378.624C32.0706 378.624 31.316 379.137 30.771 380.162C30.2259 381.174 29.9534 382.732 29.9534 384.838ZM33.0349 391.052C34.0131 391.052 34.7748 390.546 35.3198 389.535C35.8648 388.51 36.1373 386.944 36.1373 384.838C36.1373 383.051 35.9627 381.665 35.6133 380.682L30.9596 389.971C31.4627 390.692 32.1545 391.052 33.0349 391.052Z" fill="url(#paint2_linear_175_198)" fill-opacity="0.6"/>
<path d="M34.2926 414.637H37.3741V415.738H29.3874V414.637H32.9511V402.957L29.5551 404.973L28.9682 404.038L33.1607 401.461H34.2926V414.637Z" fill="url(#paint3_linear_175_198)" fill-opacity="0.6"/>
<path d="M34.2926 438.388H37.3741V439.489H29.3874V438.388H32.9511V426.708L29.5551 428.724L28.9682 427.789L33.1607 425.212H34.2926V438.388Z" fill="url(#paint4_linear_175_198)" fill-opacity="0.6"/>
<path d="M33.0349 448.755C34.5302 448.755 35.6622 449.386 36.4308 450.646C37.2134 451.893 37.6047 453.708 37.6047 456.091C37.6047 458.474 37.2134 460.296 36.4308 461.557C35.6622 462.818 34.5302 463.448 33.0349 463.448C31.5536 463.448 30.4216 462.818 29.639 461.557C28.8564 460.296 28.4651 458.474 28.4651 456.091C28.4651 453.722 28.8564 451.907 29.639 450.646C30.4216 449.386 31.5536 448.755 33.0349 448.755ZM29.9534 456.091C29.9534 457.782 30.1072 459.105 30.4146 460.061L35.0683 450.854C34.5791 450.203 33.9013 449.878 33.0349 449.878C32.0706 449.878 31.316 450.39 30.771 451.415C30.2259 452.427 29.9534 453.985 29.9534 456.091ZM33.0349 462.305C34.0131 462.305 34.7748 461.8 35.3198 460.788C35.8648 459.763 36.1373 458.197 36.1373 456.091C36.1373 454.304 35.9627 452.919 35.6133 451.935L30.9596 461.225C31.4627 461.945 32.1545 462.305 33.0349 462.305Z" fill="url(#paint5_linear_175_198)" fill-opacity="0.6"/>
<path d="M34.2926 485.89H37.3741V486.992H29.3874V485.89H32.9511V474.21L29.5551 476.226L28.9682 475.291L33.1607 472.714H34.2926V485.89Z" fill="url(#paint6_linear_175_198)" fill-opacity="0.6"/>
<path d="M33.0349 496.257C34.5302 496.257 35.6622 496.888 36.4308 498.149C37.2134 499.396 37.6047 501.211 37.6047 503.594C37.6047 505.977 37.2134 507.798 36.4308 509.059C35.6622 510.32 34.5302 510.95 33.0349 510.95C31.5536 510.95 30.4216 510.32 29.639 509.059C28.8564 507.798 28.4651 505.977 28.4651 503.594C28.4651 501.224 28.8564 499.409 29.639 498.149C30.4216 496.888 31.5536 496.257 33.0349 496.257ZM29.9534 503.594C29.9534 505.284 30.1072 506.607 30.4146 507.563L35.0683 498.356C34.5791 497.705 33.9013 497.38 33.0349 497.38C32.0706 497.38 31.316 497.892 30.771 498.918C30.2259 499.929 29.9534 501.488 29.9534 503.594ZM33.0349 509.807C34.0131 509.807 34.7748 509.302 35.3198 508.29C35.8648 507.265 36.1373 505.699 36.1373 503.594C36.1373 501.806 35.9627 500.421 35.6133 499.437L30.9596 508.727C31.4627 509.447 32.1545 509.807 33.0349 509.807Z" fill="url(#paint7_linear_175_198)" fill-opacity="0.6"/>
<path d="M33.0349 520.008C34.5302 520.008 35.6622 520.639 36.4308 521.9C37.2134 523.147 37.6047 524.962 37.6047 527.345C37.6047 529.728 37.2134 531.549 36.4308 532.81C35.6622 534.071 34.5302 534.701 33.0349 534.701C31.5536 534.701 30.4216 534.071 29.639 532.81C28.8564 531.549 28.4651 529.728 28.4651 527.345C28.4651 524.975 28.8564 523.16 29.639 521.9C30.4216 520.639 31.5536 520.008 33.0349 520.008ZM29.9534 527.345C29.9534 529.035 30.1072 530.358 30.4146 531.314L35.0683 522.107C34.5791 521.456 33.9013 521.131 33.0349 521.131C32.0706 521.131 31.316 521.643 30.771 522.669C30.2259 523.68 29.9534 525.239 29.9534 527.345ZM33.0349 533.558C34.0131 533.558 34.7748 533.053 35.3198 532.041C35.8648 531.016 36.1373 529.451 36.1373 527.345C36.1373 525.557 35.9627 524.172 35.6133 523.188L30.9596 532.478C31.4627 533.198 32.1545 533.558 33.0349 533.558Z" fill="url(#paint8_linear_175_198)" fill-opacity="0.6"/>
<path d="M34.2926 557.143H37.3741V558.245H29.3874V557.143H32.9511V545.464L29.5551 547.48L28.9682 546.544L33.1607 543.967H34.2926V557.143Z" fill="url(#paint9_linear_175_198)" fill-opacity="0.6"/>
<path d="M33.0349 567.511C34.5302 567.511 35.6622 568.141 36.4308 569.402C37.2134 570.649 37.6047 572.464 37.6047 574.847C37.6047 577.23 37.2134 579.052 36.4308 580.312C35.6622 581.573 34.5302 582.204 33.0349 582.204C31.5536 582.204 30.4216 581.573 29.639 580.312C28.8564 579.052 28.4651 577.23 28.4651 574.847C28.4651 572.478 28.8564 570.663 29.639 569.402C30.4216 568.141 31.5536 567.511 33.0349 567.511ZM29.9534 574.847C29.9534 576.537 30.1072 577.86 30.4146 578.816L35.0683 569.61C34.5791 568.958 33.9013 568.633 33.0349 568.633C32.0706 568.633 31.316 569.145 30.771 570.171C30.2259 571.182 29.9534 572.741 29.9534 574.847ZM33.0349 581.061C34.0131 581.061 34.7748 580.555 35.3198 579.543C35.8648 578.518 36.1373 576.953 36.1373 574.847C36.1373 573.059 35.9627 571.674 35.6133 570.69L30.9596 579.98C31.4627 580.7 32.1545 581.061 33.0349 581.061Z" fill="url(#paint10_linear_175_198)" fill-opacity="0.6"/>
<path d="M34.2926 604.645H37.3741V605.747H29.3874V604.645H32.9511V592.966L29.5551 594.982L28.9682 594.046L33.1607 591.469H34.2926V604.645Z" fill="url(#paint11_linear_175_198)" fill-opacity="0.6"/>
<path d="M34.2926 628.396H37.3741V629.498H29.3874V628.396H32.9511V616.717L29.5551 618.733L28.9682 617.798L33.1607 615.221H34.2926V628.396Z" fill="url(#paint12_linear_175_198)" fill-opacity="0.6"/>
<path d="M71.9651 377.502C73.4604 377.502 74.5924 378.133 75.361 379.393C76.1436 380.64 76.5349 382.455 76.5349 384.838C76.5349 387.221 76.1436 389.043 75.361 390.304C74.5924 391.565 73.4604 392.195 71.9651 392.195C70.4838 392.195 69.3518 391.565 68.5692 390.304C67.7866 389.043 67.3953 387.221 67.3953 384.838C67.3953 382.469 67.7866 380.654 68.5692 379.393C69.3518 378.133 70.4838 377.502 71.9651 377.502ZM68.8836 384.838C68.8836 386.529 69.0374 387.852 69.3448 388.808L73.9985 379.601C73.5093 378.95 72.8315 378.624 71.9651 378.624C71.0008 378.624 70.2462 379.137 69.7012 380.162C69.1561 381.174 68.8836 382.732 68.8836 384.838ZM71.9651 391.052C72.9433 391.052 73.705 390.546 74.25 389.535C74.795 388.51 75.0675 386.944 75.0675 384.838C75.0675 383.051 74.8928 381.665 74.5435 380.682L69.8898 389.971C70.3929 390.692 71.0847 391.052 71.9651 391.052Z" fill="url(#paint13_linear_175_198)" fill-opacity="0.6"/>
<path d="M73.2228 414.637H76.3043V415.738H68.3176V414.637H71.8812V402.957L68.4853 404.973L67.8984 404.038L72.0909 401.461H73.2228V414.637Z" fill="url(#paint14_linear_175_198)" fill-opacity="0.6"/>
<path d="M71.9651 425.004C73.4604 425.004 74.5924 425.635 75.361 426.895C76.1436 428.142 76.5349 429.957 76.5349 432.34C76.5349 434.723 76.1436 436.545 75.361 437.806C74.5924 439.067 73.4604 439.697 71.9651 439.697C70.4838 439.697 69.3518 439.067 68.5692 437.806C67.7866 436.545 67.3953 434.723 67.3953 432.34C67.3953 429.971 67.7866 428.156 68.5692 426.895C69.3518 425.635 70.4838 425.004 71.9651 425.004ZM68.8836 432.34C68.8836 434.031 69.0374 435.354 69.3448 436.31L73.9985 427.103C73.5093 426.452 72.8315 426.126 71.9651 426.126C71.0008 426.126 70.2462 426.639 69.7012 427.664C69.1561 428.676 68.8836 430.234 68.8836 432.34ZM71.9651 438.554C72.9433 438.554 73.705 438.049 74.25 437.037C74.795 436.012 75.0675 434.446 75.0675 432.34C75.0675 430.553 74.8928 429.168 74.5435 428.184L69.8898 437.474C70.3929 438.194 71.0847 438.554 71.9651 438.554Z" fill="url(#paint15_linear_175_198)" fill-opacity="0.6"/>
<path d="M71.9651 448.755C73.4604 448.755 74.5924 449.386 75.361 450.646C76.1436 451.893 76.5349 453.708 76.5349 456.091C76.5349 458.474 76.1436 460.296 75.361 461.557C74.5924 462.818 73.4604 463.448 71.9651 463.448C70.4838 463.448 69.3518 462.818 68.5692 461.557C67.7866 460.296 67.3953 458.474 67.3953 456.091C67.3953 453.722 67.7866 451.907 68.5692 450.646C69.3518 449.386 70.4838 448.755 71.9651 448.755ZM68.8836 456.091C68.8836 457.782 69.0374 459.105 69.3448 460.061L73.9985 450.854C73.5093 450.203 72.8315 449.878 71.9651 449.878C71.0008 449.878 70.2462 450.39 69.7012 451.415C69.1561 452.427 68.8836 453.985 68.8836 456.091ZM71.9651 462.305C72.9433 462.305 73.705 461.8 74.25 460.788C74.795 459.763 75.0675 458.197 75.0675 456.091C75.0675 454.304 74.8928 452.919 74.5435 451.935L69.8898 461.225C70.3929 461.945 71.0847 462.305 71.9651 462.305Z" fill="url(#paint16_linear_175_198)" fill-opacity="0.6"/>
<path d="M73.2228 485.89H76.3043V486.992H68.3176V485.89H71.8812V474.21L68.4853 476.226L67.8984 475.291L72.0909 472.714H73.2228V485.89Z" fill="url(#paint17_linear_175_198)" fill-opacity="0.6"/>
<path d="M71.9651 496.257C73.4604 496.257 74.5924 496.888 75.361 498.149C76.1436 499.396 76.5349 501.211 76.5349 503.594C76.5349 505.977 76.1436 507.798 75.361 509.059C74.5924 510.32 73.4604 510.95 71.9651 510.95C70.4838 510.95 69.3518 510.32 68.5692 509.059C67.7866 507.798 67.3953 505.977 67.3953 503.594C67.3953 501.224 67.7866 499.409 68.5692 498.149C69.3518 496.888 70.4838 496.257 71.9651 496.257ZM68.8836 503.594C68.8836 505.284 69.0374 506.607 69.3448 507.563L73.9985 498.356C73.5093 497.705 72.8315 497.38 71.9651 497.38C71.0008 497.38 70.2462 497.892 69.7012 498.918C69.1561 499.929 68.8836 501.488 68.8836 503.594ZM71.9651 509.807C72.9433 509.807 73.705 509.302 74.25 508.29C74.795 507.265 75.0675 505.699 75.0675 503.594C75.0675 501.806 74.8928 500.421 74.5435 499.437L69.8898 508.727C70.3929 509.447 71.0847 509.807 71.9651 509.807Z" fill="url(#paint18_linear_175_198)" fill-opacity="0.6"/>
<path d="M73.2228 533.392H76.3043V534.494H68.3176V533.392H71.8812V521.713L68.4853 523.728L67.8984 522.793L72.0909 520.216H73.2228V533.392Z" fill="url(#paint19_linear_175_198)" fill-opacity="0.6"/>
<path d="M71.9651 543.76C73.4604 543.76 74.5924 544.39 75.361 545.651C76.1436 546.898 76.5349 548.713 76.5349 551.096C76.5349 553.479 76.1436 555.301 75.361 556.561C74.5924 557.822 73.4604 558.453 71.9651 558.453C70.4838 558.453 69.3518 557.822 68.5692 556.561C67.7866 555.301 67.3953 553.479 67.3953 551.096C67.3953 548.726 67.7866 546.911 68.5692 545.651C69.3518 544.39 70.4838 543.76 71.9651 543.76ZM68.8836 551.096C68.8836 552.786 69.0374 554.109 69.3448 555.065L73.9985 545.859C73.5093 545.207 72.8315 544.882 71.9651 544.882C71.0008 544.882 70.2462 545.394 69.7012 546.42C69.1561 547.431 68.8836 548.99 68.8836 551.096ZM71.9651 557.31C72.9433 557.31 73.705 556.804 74.25 555.792C74.795 554.767 75.0675 553.202 75.0675 551.096C75.0675 549.308 74.8928 547.923 74.5435 546.939L69.8898 556.229C70.3929 556.949 71.0847 557.31 71.9651 557.31Z" fill="url(#paint20_linear_175_198)" fill-opacity="0.6"/>
<path d="M71.9651 567.511C73.4604 567.511 74.5924 568.141 75.361 569.402C76.1436 570.649 76.5349 572.464 76.5349 574.847C76.5349 577.23 76.1436 579.052 75.361 580.312C74.5924 581.573 73.4604 582.204 71.9651 582.204C70.4838 582.204 69.3518 581.573 68.5692 580.312C67.7866 579.052 67.3953 577.23 67.3953 574.847C67.3953 572.478 67.7866 570.663 68.5692 569.402C69.3518 568.141 70.4838 567.511 71.9651 567.511ZM68.8836 574.847C68.8836 576.537 69.0374 577.86 69.3448 578.816L73.9985 569.61C73.5093 568.958 72.8315 568.633 71.9651 568.633C71.0008 568.633 70.2462 569.145 69.7012 570.171C69.1561 571.182 68.8836 572.741 68.8836 574.847ZM71.9651 581.061C72.9433 581.061 73.705 580.555 74.25 579.543C74.795 578.518 75.0675 576.953 75.0675 574.847C75.0675 573.059 74.8928 571.674 74.5435 570.69L69.8898 579.98C70.3929 580.7 71.0847 581.061 71.9651 581.061Z" fill="url(#paint21_linear_175_198)" fill-opacity="0.6"/>
<path d="M73.2228 604.645H76.3043V605.747H68.3176V604.645H71.8812V592.966L68.4853 594.982L67.8984 594.046L72.0909 591.469H73.2228V604.645Z" fill="url(#paint22_linear_175_198)" fill-opacity="0.6"/>
<path d="M71.9651 615.013C73.4604 615.013 74.5924 615.643 75.361 616.904C76.1436 618.151 76.5349 619.966 76.5349 622.349C76.5349 624.732 76.1436 626.554 75.361 627.815C74.5924 629.075 73.4604 629.706 71.9651 629.706C70.4838 629.706 69.3518 629.075 68.5692 627.815C67.7866 626.554 67.3953 624.732 67.3953 622.349C67.3953 619.98 67.7866 618.165 68.5692 616.904C69.3518 615.643 70.4838 615.013 71.9651 615.013ZM68.8836 622.349C68.8836 624.039 69.0374 625.362 69.3448 626.318L73.9985 617.112C73.5093 616.461 72.8315 616.135 71.9651 616.135C71.0008 616.135 70.2462 616.648 69.7012 617.673C69.1561 618.684 68.8836 620.243 68.8836 622.349ZM71.9651 628.563C72.9433 628.563 73.705 628.057 74.25 627.046C74.795 626.02 75.0675 624.455 75.0675 622.349C75.0675 620.562 74.8928 619.176 74.5435 618.192L69.8898 627.482C70.3929 628.202 71.0847 628.563 71.9651 628.563Z" fill="url(#paint23_linear_175_198)" fill-opacity="0.6"/>
<path d="M73.2228 652.148H76.3043V653.249H68.3176V652.148H71.8812V640.468L68.4853 642.484L67.8984 641.549L72.0909 638.972H73.2228V652.148Z" fill="url(#paint24_linear_175_198)" fill-opacity="0.6"/>
<path d="M73.2228 675.899H76.3043V677H68.3176V675.899H71.8812V664.219L68.4853 666.235L67.8984 665.3L72.0909 662.723H73.2228V675.899Z" fill="url(#paint25_linear_175_198)" fill-opacity="0.6"/>
<path d="M13.5698 401.253C15.0651 401.253 16.1971 401.884 16.9657 403.144C17.7483 404.391 18.1396 406.206 18.1396 408.589C18.1396 410.972 17.7483 412.794 16.9657 414.055C16.1971 415.316 15.0651 415.946 13.5698 415.946C12.0885 415.946 10.9565 415.316 10.1739 414.055C9.3913 412.794 9 410.972 9 408.589C9 406.22 9.3913 404.405 10.1739 403.144C10.9565 401.884 12.0885 401.253 13.5698 401.253ZM10.4883 408.589C10.4883 410.28 10.6421 411.603 10.9495 412.559L15.6032 403.352C15.114 402.701 14.4363 402.375 13.5698 402.375C12.6055 402.375 11.8509 402.888 11.3059 403.913C10.7608 404.925 10.4883 406.483 10.4883 408.589ZM13.5698 414.803C14.5481 414.803 15.3097 414.297 15.8547 413.286C16.3997 412.261 16.6722 410.695 16.6722 408.589C16.6722 406.802 16.4976 405.417 16.1482 404.433L11.4945 413.722C11.9976 414.443 12.6894 414.803 13.5698 414.803Z" fill="url(#paint26_linear_175_198)" fill-opacity="0.6"/>
<path d="M13.5698 425.004C15.0651 425.004 16.1971 425.635 16.9657 426.895C17.7483 428.142 18.1396 429.957 18.1396 432.34C18.1396 434.723 17.7483 436.545 16.9657 437.806C16.1971 439.067 15.0651 439.697 13.5698 439.697C12.0885 439.697 10.9565 439.067 10.1739 437.806C9.3913 436.545 9 434.723 9 432.34C9 429.971 9.3913 428.156 10.1739 426.895C10.9565 425.635 12.0885 425.004 13.5698 425.004ZM10.4883 432.34C10.4883 434.031 10.6421 435.354 10.9495 436.31L15.6032 427.103C15.114 426.452 14.4363 426.126 13.5698 426.126C12.6055 426.126 11.8509 426.639 11.3059 427.664C10.7608 428.676 10.4883 430.234 10.4883 432.34ZM13.5698 438.554C14.5481 438.554 15.3097 438.049 15.8547 437.037C16.3997 436.012 16.6722 434.446 16.6722 432.34C16.6722 430.553 16.4976 429.168 16.1482 428.184L11.4945 437.474C11.9976 438.194 12.6894 438.554 13.5698 438.554Z" fill="url(#paint27_linear_175_198)" fill-opacity="0.6"/>
<path d="M14.8276 462.139H17.909V463.24H9.92235V462.139H13.486V450.459L10.09 452.475L9.5031 451.54L13.6956 448.963H14.8276V462.139Z" fill="url(#paint28_linear_175_198)" fill-opacity="0.6"/>
<path d="M13.5698 472.506C15.0651 472.506 16.1971 473.137 16.9657 474.398C17.7483 475.644 18.1396 477.459 18.1396 479.842C18.1396 482.225 17.7483 484.047 16.9657 485.308C16.1971 486.569 15.0651 487.199 13.5698 487.199C12.0885 487.199 10.9565 486.569 10.1739 485.308C9.3913 484.047 9 482.225 9 479.842C9 477.473 9.3913 475.658 10.1739 474.398C10.9565 473.137 12.0885 472.506 13.5698 472.506ZM10.4883 479.842C10.4883 481.533 10.6421 482.856 10.9495 483.812L15.6032 474.605C15.114 473.954 14.4363 473.629 13.5698 473.629C12.6055 473.629 11.8509 474.141 11.3059 475.166C10.7608 476.178 10.4883 477.737 10.4883 479.842ZM13.5698 486.056C14.5481 486.056 15.3097 485.551 15.8547 484.539C16.3997 483.514 16.6722 481.948 16.6722 479.842C16.6722 478.055 16.4976 476.67 16.1482 475.686L11.4945 484.976C11.9976 485.696 12.6894 486.056 13.5698 486.056Z" fill="url(#paint29_linear_175_198)" fill-opacity="0.6"/>
<path d="M14.8276 509.641H17.909V510.743H9.92235V509.641H13.486V497.962L10.09 499.977L9.5031 499.042L13.6956 496.465H14.8276V509.641Z" fill="url(#paint30_linear_175_198)" fill-opacity="0.6"/>
<path d="M14.8276 533.392H17.909V534.494H9.92235V533.392H13.486V521.713L10.09 523.728L9.5031 522.793L13.6956 520.216H14.8276V533.392Z" fill="url(#paint31_linear_175_198)" fill-opacity="0.6"/>
<path d="M53.7577 367.135H56.8392V368.236H48.8525V367.135H52.4162V355.455L49.0202 357.471L48.4333 356.536L52.6258 353.959H53.7577V367.135Z" fill="url(#paint32_linear_175_198)" fill-opacity="0.6"/>
<path d="M52.5 377.502C53.9953 377.502 55.1273 378.133 55.8959 379.393C56.6785 380.64 57.0698 382.455 57.0698 384.838C57.0698 387.221 56.6785 389.043 55.8959 390.304C55.1273 391.565 53.9953 392.195 52.5 392.195C51.0187 392.195 49.8867 391.565 49.1041 390.304C48.3215 389.043 47.9302 387.221 47.9302 384.838C47.9302 382.469 48.3215 380.654 49.1041 379.393C49.8867 378.133 51.0187 377.502 52.5 377.502ZM49.4185 384.838C49.4185 386.529 49.5723 387.852 49.8797 388.808L54.5334 379.601C54.0442 378.95 53.3664 378.624 52.5 378.624C51.5357 378.624 50.7811 379.137 50.2361 380.162C49.691 381.174 49.4185 382.732 49.4185 384.838ZM52.5 391.052C53.4782 391.052 54.2399 390.546 54.7849 389.535C55.3299 388.51 55.6024 386.944 55.6024 384.838C55.6024 383.051 55.4277 381.665 55.0784 380.682L50.4247 389.971C50.9278 390.692 51.6196 391.052 52.5 391.052Z" fill="url(#paint33_linear_175_198)" fill-opacity="0.6"/>
<path d="M53.7577 414.637H56.8392V415.738H48.8525V414.637H52.4162V402.957L49.0202 404.973L48.4333 404.038L52.6258 401.461H53.7577V414.637Z" fill="url(#paint34_linear_175_198)" fill-opacity="0.6"/>
<path d="M53.7577 438.388H56.8392V439.489H48.8525V438.388H52.4162V426.708L49.0202 428.724L48.4333 427.789L52.6258 425.212H53.7577V438.388Z" fill="url(#paint35_linear_175_198)" fill-opacity="0.6"/>
<path d="M52.5 448.755C53.9953 448.755 55.1273 449.386 55.8959 450.646C56.6785 451.893 57.0698 453.708 57.0698 456.091C57.0698 458.474 56.6785 460.296 55.8959 461.557C55.1273 462.818 53.9953 463.448 52.5 463.448C51.0187 463.448 49.8867 462.818 49.1041 461.557C48.3215 460.296 47.9302 458.474 47.9302 456.091C47.9302 453.722 48.3215 451.907 49.1041 450.646C49.8867 449.386 51.0187 448.755 52.5 448.755ZM49.4185 456.091C49.4185 457.782 49.5723 459.105 49.8797 460.061L54.5334 450.854C54.0442 450.203 53.3664 449.878 52.5 449.878C51.5357 449.878 50.7811 450.39 50.2361 451.415C49.691 452.427 49.4185 453.985 49.4185 456.091ZM52.5 462.305C53.4782 462.305 54.2399 461.8 54.7849 460.788C55.3299 459.763 55.6024 458.197 55.6024 456.091C55.6024 454.304 55.4277 452.919 55.0784 451.935L50.4247 461.225C50.9278 461.945 51.6196 462.305 52.5 462.305Z" fill="url(#paint36_linear_175_198)" fill-opacity="0.6"/>
<path d="M53.7577 485.89H56.8392V486.992H48.8525V485.89H52.4162V474.21L49.0202 476.226L48.4333 475.291L52.6258 472.714H53.7577V485.89Z" fill="url(#paint37_linear_175_198)" fill-opacity="0.6"/>
<path d="M53.7577 509.641H56.8392V510.743H48.8525V509.641H52.4162V497.962L49.0202 499.977L48.4333 499.042L52.6258 496.465H53.7577V509.641Z" fill="url(#paint38_linear_175_198)" fill-opacity="0.6"/>
<path d="M52.5 520.008C53.9953 520.008 55.1273 520.639 55.8959 521.9C56.6785 523.147 57.0698 524.962 57.0698 527.345C57.0698 529.728 56.6785 531.549 55.8959 532.81C55.1273 534.071 53.9953 534.701 52.5 534.701C51.0187 534.701 49.8867 534.071 49.1041 532.81C48.3215 531.549 47.9302 529.728 47.9302 527.345C47.9302 524.975 48.3215 523.16 49.1041 521.9C49.8867 520.639 51.0187 520.008 52.5 520.008ZM49.4185 527.345C49.4185 529.035 49.5723 530.358 49.8797 531.314L54.5334 522.107C54.0442 521.456 53.3664 521.131 52.5 521.131C51.5357 521.131 50.7811 521.643 50.2361 522.669C49.691 523.68 49.4185 525.239 49.4185 527.345ZM52.5 533.558C53.4782 533.558 54.2399 533.053 54.7849 532.041C55.3299 531.016 55.6024 529.451 55.6024 527.345C55.6024 525.557 55.4277 524.172 55.0784 523.188L50.4247 532.478C50.9278 533.198 51.6196 533.558 52.5 533.558Z" fill="url(#paint39_linear_175_198)" fill-opacity="0.6"/>
<path d="M53.7577 557.143H56.8392V558.245H48.8525V557.143H52.4162V545.464L49.0202 547.48L48.4333 546.544L52.6258 543.967H53.7577V557.143Z" fill="url(#paint40_linear_175_198)" fill-opacity="0.6"/>
<path d="M52.5 567.511C53.9953 567.511 55.1273 568.141 55.8959 569.402C56.6785 570.649 57.0698 572.464 57.0698 574.847C57.0698 577.23 56.6785 579.052 55.8959 580.312C55.1273 581.573 53.9953 582.204 52.5 582.204C51.0187 582.204 49.8867 581.573 49.1041 580.312C48.3215 579.052 47.9302 577.23 47.9302 574.847C47.9302 572.478 48.3215 570.663 49.1041 569.402C49.8867 568.141 51.0187 567.511 52.5 567.511ZM49.4185 574.847C49.4185 576.537 49.5723 577.86 49.8797 578.816L54.5334 569.61C54.0442 568.958 53.3664 568.633 52.5 568.633C51.5357 568.633 50.7811 569.145 50.2361 570.171C49.691 571.182 49.4185 572.741 49.4185 574.847ZM52.5 581.061C53.4782 581.061 54.2399 580.555 54.7849 579.543C55.3299 578.518 55.6024 576.953 55.6024 574.847C55.6024 573.059 55.4277 571.674 55.0784 570.69L50.4247 579.98C50.9278 580.7 51.6196 581.061 52.5 581.061Z" fill="url(#paint41_linear_175_198)" fill-opacity="0.6"/>
<path d="M91.4302 353.751C92.9255 353.751 94.0575 354.381 94.8261 355.642C95.6087 356.889 96 358.704 96 361.087C96 363.47 95.6087 365.292 94.8261 366.553C94.0575 367.814 92.9255 368.444 91.4302 368.444C89.9489 368.444 88.8169 367.814 88.0343 366.553C87.2517 365.292 86.8604 363.47 86.8604 361.087C86.8604 358.718 87.2517 356.903 88.0343 355.642C88.8169 354.381 89.9489 353.751 91.4302 353.751ZM88.3487 361.087C88.3487 362.777 88.5024 364.101 88.8099 365.057L93.4636 355.85C92.9744 355.199 92.2966 354.873 91.4302 354.873C90.4659 354.873 89.7113 355.386 89.1663 356.411C88.6212 357.423 88.3487 358.981 88.3487 361.087ZM91.4302 367.301C92.4084 367.301 93.1701 366.795 93.7151 365.784C94.2601 364.759 94.5326 363.193 94.5326 361.087C94.5326 359.3 94.3579 357.914 94.0086 356.931L89.3549 366.22C89.858 366.941 90.5498 367.301 91.4302 367.301Z" fill="url(#paint42_linear_175_198)" fill-opacity="0.6"/>
<path d="M92.6879 390.886H95.7694V391.987H87.7827V390.886H91.3463V379.206L87.9504 381.222L87.3635 380.287L91.556 377.71H92.6879V390.886Z" fill="url(#paint43_linear_175_198)" fill-opacity="0.6"/>
<path d="M92.6879 414.637H95.7694V415.738H87.7827V414.637H91.3463V402.957L87.9504 404.973L87.3635 404.038L91.556 401.461H92.6879V414.637Z" fill="url(#paint44_linear_175_198)" fill-opacity="0.6"/>
<path d="M91.4302 425.004C92.9255 425.004 94.0575 425.635 94.8261 426.895C95.6087 428.142 96 429.957 96 432.34C96 434.723 95.6087 436.545 94.8261 437.806C94.0575 439.067 92.9255 439.697 91.4302 439.697C89.9489 439.697 88.8169 439.067 88.0343 437.806C87.2517 436.545 86.8604 434.723 86.8604 432.34C86.8604 429.971 87.2517 428.156 88.0343 426.895C88.8169 425.635 89.9489 425.004 91.4302 425.004ZM88.3487 432.34C88.3487 434.031 88.5024 435.354 88.8099 436.31L93.4636 427.103C92.9744 426.452 92.2966 426.126 91.4302 426.126C90.4659 426.126 89.7113 426.639 89.1663 427.664C88.6212 428.676 88.3487 430.234 88.3487 432.34ZM91.4302 438.554C92.4084 438.554 93.1701 438.049 93.7151 437.037C94.2601 436.012 94.5326 434.446 94.5326 432.34C94.5326 430.553 94.3579 429.168 94.0086 428.184L89.3549 437.474C89.858 438.194 90.5498 438.554 91.4302 438.554Z" fill="url(#paint45_linear_175_198)" fill-opacity="0.6"/>
<path d="M91.4302 448.755C92.9255 448.755 94.0575 449.386 94.8261 450.646C95.6087 451.893 96 453.708 96 456.091C96 458.474 95.6087 460.296 94.8261 461.557C94.0575 462.818 92.9255 463.448 91.4302 463.448C89.9489 463.448 88.8169 462.818 88.0343 461.557C87.2517 460.296 86.8604 458.474 86.8604 456.091C86.8604 453.722 87.2517 451.907 88.0343 450.646C88.8169 449.386 89.9489 448.755 91.4302 448.755ZM88.3487 456.091C88.3487 457.782 88.5024 459.105 88.8099 460.061L93.4636 450.854C92.9744 450.203 92.2966 449.878 91.4302 449.878C90.4659 449.878 89.7113 450.39 89.1663 451.415C88.6212 452.427 88.3487 453.985 88.3487 456.091ZM91.4302 462.305C92.4084 462.305 93.1701 461.8 93.7151 460.788C94.2601 459.763 94.5326 458.197 94.5326 456.091C94.5326 454.304 94.3579 452.919 94.0086 451.935L89.3549 461.225C89.858 461.945 90.5498 462.305 91.4302 462.305Z" fill="url(#paint46_linear_175_198)" fill-opacity="0.6"/>
<g opacity="0.6">
<path d="M919.93 30C921.356 30 922.436 30.605 923.17 31.8149C923.916 33.0115 924.29 34.7532 924.29 37.0401C924.29 39.327 923.916 41.0754 923.17 42.2853C922.436 43.4952 921.356 44.1002 919.93 44.1002C918.517 44.1002 917.437 43.4952 916.69 42.2853C915.943 41.0754 915.57 39.327 915.57 37.0401C915.57 34.7665 915.943 33.0248 916.69 31.8149C917.437 30.605 918.517 30 919.93 30ZM916.99 37.0401C916.99 38.6622 917.137 39.932 917.43 40.8494L921.87 32.0143C921.403 31.3894 920.756 31.077 919.93 31.077C919.01 31.077 918.29 31.5689 917.77 32.5528C917.25 33.5234 916.99 35.0192 916.99 37.0401ZM919.93 43.0033C920.863 43.0033 921.59 42.518 922.11 41.5474C922.63 40.5635 922.89 39.0611 922.89 37.0401C922.89 35.325 922.723 33.9954 922.39 33.0514L917.95 41.9662C918.43 42.6576 919.09 43.0033 919.93 43.0033Z" fill="url(#paint47_linear_175_198)"/>
<path d="M921.13 65.6365H924.07V66.6936H916.45V65.6365H919.85V54.4282L916.61 56.3627L916.05 55.4653L920.05 52.9922H921.13V65.6365Z" fill="url(#paint48_linear_175_198)"/>
<path d="M919.93 75.5856C921.356 75.5856 922.436 76.1906 923.17 77.4005C923.916 78.5971 924.29 80.3389 924.29 82.6257C924.29 84.9126 923.916 86.661 923.17 87.8709C922.436 89.0808 921.356 89.6858 919.93 89.6858C918.517 89.6858 917.437 89.0808 916.69 87.8709C915.943 86.661 915.57 84.9126 915.57 82.6257C915.57 80.3522 915.943 78.6104 916.69 77.4005C917.437 76.1906 918.517 75.5856 919.93 75.5856ZM916.99 82.6257C916.99 84.2478 917.137 85.5176 917.43 86.435L921.87 77.5999C921.403 76.975 920.756 76.6626 919.93 76.6626C919.01 76.6626 918.29 77.1545 917.77 78.1384C917.25 79.109 916.99 80.6048 916.99 82.6257ZM919.93 88.5889C920.863 88.5889 921.59 88.1036 922.11 87.133C922.63 86.1491 922.89 84.6467 922.89 82.6257C922.89 80.9106 922.723 79.581 922.39 78.637L917.95 87.5518C918.43 88.2432 919.09 88.5889 919.93 88.5889Z" fill="url(#paint49_linear_175_198)"/>
<path d="M921.13 111.222H924.07V112.279H916.45V111.222H919.85V100.014L916.61 101.948L916.05 101.051L920.05 98.5778H921.13V111.222Z" fill="url(#paint50_linear_175_198)"/>
<path d="M921.13 134.015H924.07V135.072H916.45V134.015H919.85V122.807L916.61 124.741L916.05 123.844L920.05 121.371H921.13V134.015Z" fill="url(#paint51_linear_175_198)"/>
<path d="M919.93 143.964C921.356 143.964 922.436 144.569 923.17 145.779C923.916 146.976 924.29 148.717 924.29 151.004C924.29 153.291 923.916 155.039 923.17 156.249C922.436 157.459 921.356 158.064 919.93 158.064C918.517 158.064 917.437 157.459 916.69 156.249C915.943 155.039 915.57 153.291 915.57 151.004C915.57 148.731 915.943 146.989 916.69 145.779C917.437 144.569 918.517 143.964 919.93 143.964ZM916.99 151.004C916.99 152.626 917.137 153.896 917.43 154.813L921.87 145.978C921.403 145.353 920.756 145.041 919.93 145.041C919.01 145.041 918.29 145.533 917.77 146.517C917.25 147.487 916.99 148.983 916.99 151.004ZM919.93 156.967C920.863 156.967 921.59 156.482 922.11 155.511C922.63 154.528 922.89 153.025 922.89 151.004C922.89 149.289 922.723 147.959 922.39 147.015L917.95 155.93C918.43 156.622 919.09 156.967 919.93 156.967Z" fill="url(#paint52_linear_175_198)"/>
<path d="M921.13 179.601H924.07V180.658H916.45V179.601H919.85V168.392L916.61 170.327L916.05 169.429L920.05 166.956H921.13V179.601Z" fill="url(#paint53_linear_175_198)"/>
<path d="M919.93 189.55C921.356 189.55 922.436 190.155 923.17 191.365C923.916 192.561 924.29 194.303 924.29 196.59C924.29 198.877 923.916 200.625 923.17 201.835C922.436 203.045 921.356 203.65 919.93 203.65C918.517 203.65 917.437 203.045 916.69 201.835C915.943 200.625 915.57 198.877 915.57 196.59C915.57 194.316 915.943 192.574 916.69 191.365C917.437 190.155 918.517 189.55 919.93 189.55ZM916.99 196.59C916.99 198.212 917.137 199.482 917.43 200.399L921.87 191.564C921.403 190.939 920.756 190.627 919.93 190.627C919.01 190.627 918.29 191.119 917.77 192.102C917.25 193.073 916.99 194.569 916.99 196.59ZM919.93 202.553C920.863 202.553 921.59 202.068 922.11 201.097C922.63 200.113 922.89 198.611 922.89 196.59C922.89 194.875 922.723 193.545 922.39 192.601L917.95 201.516C918.43 202.207 919.09 202.553 919.93 202.553Z" fill="url(#paint54_linear_175_198)"/>
<path d="M919.93 212.342C921.356 212.342 922.436 212.947 923.17 214.157C923.916 215.354 924.29 217.096 924.29 219.383C924.29 221.669 923.916 223.418 923.17 224.628C922.436 225.838 921.356 226.443 919.93 226.443C918.517 226.443 917.437 225.838 916.69 224.628C915.943 223.418 915.57 221.669 915.57 219.383C915.57 217.109 915.943 215.367 916.69 214.157C917.437 212.947 918.517 212.342 919.93 212.342ZM916.99 219.383C916.99 221.005 917.137 222.274 917.43 223.192L921.87 214.357C921.403 213.732 920.756 213.419 919.93 213.419C919.01 213.419 918.29 213.911 917.77 214.895C917.25 215.866 916.99 217.362 916.99 219.383ZM919.93 225.346C920.863 225.346 921.59 224.86 922.11 223.89C922.63 222.906 922.89 221.404 922.89 219.383C922.89 217.667 922.723 216.338 922.39 215.394L917.95 224.309C918.43 225 919.09 225.346 919.93 225.346Z" fill="url(#paint55_linear_175_198)"/>
<path d="M921.13 247.979H924.07V249.036H916.45V247.979H919.85V236.771L916.61 238.705L916.05 237.808L920.05 235.335H921.13V247.979Z" fill="url(#paint56_linear_175_198)"/>
<path d="M919.93 257.928C921.356 257.928 922.436 258.533 923.17 259.743C923.916 260.94 924.29 262.681 924.29 264.968C924.29 267.255 923.916 269.003 923.17 270.213C922.436 271.423 921.356 272.028 919.93 272.028C918.517 272.028 917.437 271.423 916.69 270.213C915.943 269.003 915.57 267.255 915.57 264.968C915.57 262.695 915.943 260.953 916.69 259.743C917.437 258.533 918.517 257.928 919.93 257.928ZM916.99 264.968C916.99 266.59 917.137 267.86 917.43 268.777L921.87 259.942C921.403 259.317 920.756 259.005 919.93 259.005C919.01 259.005 918.29 259.497 917.77 260.481C917.25 261.451 916.99 262.947 916.99 264.968ZM919.93 270.931C920.863 270.931 921.59 270.446 922.11 269.475C922.63 268.492 922.89 266.989 922.89 264.968C922.89 263.253 922.723 261.923 922.39 260.979L917.95 269.894C918.43 270.586 919.09 270.931 919.93 270.931Z" fill="url(#paint57_linear_175_198)"/>
<path d="M921.13 293.565H924.07V294.622H916.45V293.565H919.85V282.356L916.61 284.291L916.05 283.393L920.05 280.92H921.13V293.565Z" fill="url(#paint58_linear_175_198)"/>
<path d="M921.13 316.357H924.07V317.414H916.45V316.357H919.85V305.149L916.61 307.084L916.05 306.186L920.05 303.713H921.13V316.357Z" fill="url(#paint59_linear_175_198)"/>
<path d="M957.07 75.5856C958.497 75.5856 959.577 76.1906 960.31 77.4005C961.057 78.5971 961.43 80.3389 961.43 82.6257C961.43 84.9126 961.057 86.661 960.31 87.8709C959.577 89.0808 958.497 89.6858 957.07 89.6858C955.657 89.6858 954.577 89.0808 953.83 87.8709C953.084 86.661 952.71 84.9126 952.71 82.6257C952.71 80.3522 953.084 78.6104 953.83 77.4005C954.577 76.1906 955.657 75.5856 957.07 75.5856ZM954.13 82.6257C954.13 84.2478 954.277 85.5176 954.57 86.435L959.01 77.5999C958.543 76.975 957.897 76.6626 957.07 76.6626C956.15 76.6626 955.43 77.1545 954.91 78.1384C954.39 79.109 954.13 80.6048 954.13 82.6257ZM957.07 88.5889C958.003 88.5889 958.73 88.1036 959.25 87.133C959.77 86.1491 960.03 84.6467 960.03 82.6257C960.03 80.9106 959.863 79.581 959.53 78.637L955.09 87.5518C955.57 88.2432 956.23 88.5889 957.07 88.5889Z" fill="url(#paint60_linear_175_198)"/>
<path d="M958.27 111.222H961.21V112.279H953.59V111.222H956.99V100.014L953.75 101.948L953.19 101.051L957.19 98.5778H958.27V111.222Z" fill="url(#paint61_linear_175_198)"/>
<path d="M957.07 121.171C958.497 121.171 959.577 121.776 960.31 122.986C961.057 124.183 961.43 125.924 961.43 128.211C961.43 130.498 961.057 132.247 960.31 133.457C959.577 134.666 958.497 135.271 957.07 135.271C955.657 135.271 954.577 134.666 953.83 133.457C953.084 132.247 952.71 130.498 952.71 128.211C952.71 125.938 953.084 124.196 953.83 122.986C954.577 121.776 955.657 121.171 957.07 121.171ZM954.13 128.211C954.13 129.833 954.277 131.103 954.57 132.021L959.01 123.186C958.543 122.561 957.897 122.248 957.07 122.248C956.15 122.248 955.43 122.74 954.91 123.724C954.39 124.695 954.13 126.19 954.13 128.211ZM957.07 134.174C958.003 134.174 958.73 133.689 959.25 132.719C959.77 131.735 960.03 130.232 960.03 128.211C960.03 126.496 959.863 125.167 959.53 124.223L955.09 133.137C955.57 133.829 956.23 134.174 957.07 134.174Z" fill="url(#paint62_linear_175_198)"/>
<path d="M957.07 143.964C958.497 143.964 959.577 144.569 960.31 145.779C961.057 146.976 961.43 148.717 961.43 151.004C961.43 153.291 961.057 155.039 960.31 156.249C959.577 157.459 958.497 158.064 957.07 158.064C955.657 158.064 954.577 157.459 953.83 156.249C953.084 155.039 952.71 153.291 952.71 151.004C952.71 148.731 953.084 146.989 953.83 145.779C954.577 144.569 955.657 143.964 957.07 143.964ZM954.13 151.004C954.13 152.626 954.277 153.896 954.57 154.813L959.01 145.978C958.543 145.353 957.897 145.041 957.07 145.041C956.15 145.041 955.43 145.533 954.91 146.517C954.39 147.487 954.13 148.983 954.13 151.004ZM957.07 156.967C958.003 156.967 958.73 156.482 959.25 155.511C959.77 154.528 960.03 153.025 960.03 151.004C960.03 149.289 959.863 147.959 959.53 147.015L955.09 155.93C955.57 156.622 956.23 156.967 957.07 156.967Z" fill="url(#paint63_linear_175_198)"/>
<path d="M958.27 179.601H961.21V180.658H953.59V179.601H956.99V168.392L953.75 170.327L953.19 169.429L957.19 166.956H958.27V179.601Z" fill="url(#paint64_linear_175_198)"/>
<path d="M957.07 189.55C958.497 189.55 959.577 190.155 960.31 191.365C961.057 192.561 961.43 194.303 961.43 196.59C961.43 198.877 961.057 200.625 960.31 201.835C959.577 203.045 958.497 203.65 957.07 203.65C955.657 203.65 954.577 203.045 953.83 201.835C953.084 200.625 952.71 198.877 952.71 196.59C952.71 194.316 953.084 192.574 953.83 191.365C954.577 190.155 955.657 189.55 957.07 189.55ZM954.13 196.59C954.13 198.212 954.277 199.482 954.57 200.399L959.01 191.564C958.543 190.939 957.897 190.627 957.07 190.627C956.15 190.627 955.43 191.119 954.91 192.102C954.39 193.073 954.13 194.569 954.13 196.59ZM957.07 202.553C958.003 202.553 958.73 202.068 959.25 201.097C959.77 200.113 960.03 198.611 960.03 196.59C960.03 194.875 959.863 193.545 959.53 192.601L955.09 201.516C955.57 202.207 956.23 202.553 957.07 202.553Z" fill="url(#paint65_linear_175_198)"/>
<path d="M958.27 225.186H961.21V226.243H953.59V225.186H956.99V213.978L953.75 215.912L953.19 215.015L957.19 212.542H958.27V225.186Z" fill="url(#paint66_linear_175_198)"/>
<path d="M957.07 235.135C958.497 235.135 959.577 235.74 960.31 236.95C961.057 238.147 961.43 239.888 961.43 242.175C961.43 244.462 961.057 246.211 960.31 247.421C959.577 248.63 958.497 249.235 957.07 249.235C955.657 249.235 954.577 248.63 953.83 247.421C953.084 246.211 952.71 244.462 952.71 242.175C952.71 239.902 953.084 238.16 953.83 236.95C954.577 235.74 955.657 235.135 957.07 235.135ZM954.13 242.175C954.13 243.797 954.277 245.067 954.57 245.985L959.01 237.15C958.543 236.525 957.897 236.212 957.07 236.212C956.15 236.212 955.43 236.704 954.91 237.688C954.39 238.659 954.13 240.154 954.13 242.175ZM957.07 248.139C958.003 248.139 958.73 247.653 959.25 246.683C959.77 245.699 960.03 244.196 960.03 242.175C960.03 240.46 959.863 239.131 959.53 238.187L955.09 247.101C955.57 247.793 956.23 248.139 957.07 248.139Z" fill="url(#paint67_linear_175_198)"/>
<path d="M957.07 257.928C958.497 257.928 959.577 258.533 960.31 259.743C961.057 260.94 961.43 262.681 961.43 264.968C961.43 267.255 961.057 269.003 960.31 270.213C959.577 271.423 958.497 272.028 957.07 272.028C955.657 272.028 954.577 271.423 953.83 270.213C953.084 269.003 952.71 267.255 952.71 264.968C952.71 262.695 953.084 260.953 953.83 259.743C954.577 258.533 955.657 257.928 957.07 257.928ZM954.13 264.968C954.13 266.59 954.277 267.86 954.57 268.777L959.01 259.942C958.543 259.317 957.897 259.005 957.07 259.005C956.15 259.005 955.43 259.497 954.91 260.481C954.39 261.451 954.13 262.947 954.13 264.968ZM957.07 270.931C958.003 270.931 958.73 270.446 959.25 269.475C959.77 268.492 960.03 266.989 960.03 264.968C960.03 263.253 959.863 261.923 959.53 260.979L955.09 269.894C955.57 270.586 956.23 270.931 957.07 270.931Z" fill="url(#paint68_linear_175_198)"/>
<path d="M958.27 293.565H961.21V294.622H953.59V293.565H956.99V282.356L953.75 284.291L953.19 283.393L957.19 280.92H958.27V293.565Z" fill="url(#paint69_linear_175_198)"/>
<path d="M957.07 303.514C958.497 303.514 959.577 304.119 960.31 305.329C961.057 306.525 961.43 308.267 961.43 310.554C961.43 312.841 961.057 314.589 960.31 315.799C959.577 317.009 958.497 317.614 957.07 317.614C955.657 317.614 954.577 317.009 953.83 315.799C953.084 314.589 952.71 312.841 952.71 310.554C952.71 308.28 953.084 306.538 953.83 305.329C954.577 304.119 955.657 303.514 957.07 303.514ZM954.13 310.554C954.13 312.176 954.277 313.446 954.57 314.363L959.01 305.528C958.543 304.903 957.897 304.591 957.07 304.591C956.15 304.591 955.43 305.083 954.91 306.066C954.39 307.037 954.13 308.533 954.13 310.554ZM957.07 316.517C958.003 316.517 958.73 316.032 959.25 315.061C959.77 314.077 960.03 312.575 960.03 310.554C960.03 308.839 959.863 307.509 959.53 306.565L955.09 315.48C955.57 316.171 956.23 316.517 957.07 316.517Z" fill="url(#paint70_linear_175_198)"/>
<path d="M958.27 339.15H961.21V340.207H953.59V339.15H956.99V327.942L953.75 329.876L953.19 328.979L957.19 326.506H958.27V339.15Z" fill="url(#paint71_linear_175_198)"/>
<path d="M958.27 361.943H961.21V363H953.59V361.943H956.99V350.735L953.75 352.669L953.19 351.772L957.19 349.299H958.27V361.943Z" fill="url(#paint72_linear_175_198)"/>
<path d="M901.36 98.3784C902.786 98.3784 903.866 98.9834 904.599 100.193C905.346 101.39 905.719 103.132 905.719 105.419C905.719 107.705 905.346 109.454 904.599 110.664C903.866 111.874 902.786 112.479 901.36 112.479C899.946 112.479 898.867 111.874 898.12 110.664C897.373 109.454 897 107.705 897 105.419C897 103.145 897.373 101.403 898.12 100.193C898.867 98.9834 899.946 98.3784 901.36 98.3784ZM898.42 105.419C898.42 107.041 898.567 108.31 898.86 109.228L903.3 100.393C902.833 99.7678 902.186 99.4554 901.36 99.4554C900.44 99.4554 899.72 99.9473 899.2 100.931C898.68 101.902 898.42 103.398 898.42 105.419ZM901.36 111.382C902.293 111.382 903.02 110.896 903.54 109.926C904.06 108.942 904.319 107.44 904.319 105.419C904.319 103.703 904.153 102.374 903.82 101.43L899.38 110.345C899.86 111.036 900.52 111.382 901.36 111.382Z" fill="url(#paint73_linear_175_198)"/>
<path d="M901.36 121.171C902.786 121.171 903.866 121.776 904.599 122.986C905.346 124.183 905.719 125.924 905.719 128.211C905.719 130.498 905.346 132.247 904.599 133.457C903.866 134.666 902.786 135.271 901.36 135.271C899.946 135.271 898.867 134.666 898.12 133.457C897.373 132.247 897 130.498 897 128.211C897 125.938 897.373 124.196 898.12 122.986C898.867 121.776 899.946 121.171 901.36 121.171ZM898.42 128.211C898.42 129.833 898.567 131.103 898.86 132.021L903.3 123.186C902.833 122.561 902.186 122.248 901.36 122.248C900.44 122.248 899.72 122.74 899.2 123.724C898.68 124.695 898.42 126.19 898.42 128.211ZM901.36 134.174C902.293 134.174 903.02 133.689 903.54 132.719C904.06 131.735 904.319 130.232 904.319 128.211C904.319 126.496 904.153 125.167 903.82 124.223L899.38 133.137C899.86 133.829 900.52 134.174 901.36 134.174Z" fill="url(#paint74_linear_175_198)"/>
<path d="M902.56 156.808H905.499V157.865H897.88V156.808H901.28V145.599L898.04 147.534L897.48 146.636L901.48 144.163H902.56V156.808Z" fill="url(#paint75_linear_175_198)"/>
<path d="M901.36 166.757C902.786 166.757 903.866 167.362 904.599 168.572C905.346 169.768 905.719 171.51 905.719 173.797C905.719 176.084 905.346 177.832 904.599 179.042C903.866 180.252 902.786 180.857 901.36 180.857C899.946 180.857 898.867 180.252 898.12 179.042C897.373 177.832 897 176.084 897 173.797C897 171.523 897.373 169.782 898.12 168.572C898.867 167.362 899.946 166.757 901.36 166.757ZM898.42 173.797C898.42 175.419 898.567 176.689 898.86 177.606L903.3 168.771C902.833 168.146 902.186 167.834 901.36 167.834C900.44 167.834 899.72 168.326 899.2 169.31C898.68 170.28 898.42 171.776 898.42 173.797ZM901.36 179.76C902.293 179.76 903.02 179.275 903.54 178.304C904.06 177.32 904.319 175.818 904.319 173.797C904.319 172.082 904.153 170.752 903.82 169.808L899.38 178.723C899.86 179.414 900.52 179.76 901.36 179.76Z" fill="url(#paint76_linear_175_198)"/>
<path d="M902.56 202.393H905.499V203.45H897.88V202.393H901.28V191.185L898.04 193.12L897.48 192.222L901.48 189.749H902.56V202.393Z" fill="url(#paint77_linear_175_198)"/>
<path d="M902.56 225.186H905.499V226.243H897.88V225.186H901.28V213.978L898.04 215.912L897.48 215.015L901.48 212.542H902.56V225.186Z" fill="url(#paint78_linear_175_198)"/>
<path d="M939.7 65.6365H942.64V66.6936H935.02V65.6365H938.42V54.4282L935.18 56.3627L934.62 55.4653L938.62 52.9922H939.7V65.6365Z" fill="url(#paint79_linear_175_198)"/>
<path d="M938.5 75.5856C939.927 75.5856 941.006 76.1906 941.74 77.4005C942.486 78.5971 942.86 80.3389 942.86 82.6257C942.86 84.9126 942.486 86.661 941.74 87.8709C941.006 89.0808 939.927 89.6858 938.5 89.6858C937.087 89.6858 936.007 89.0808 935.26 87.8709C934.514 86.661 934.14 84.9126 934.14 82.6257C934.14 80.3522 934.514 78.6104 935.26 77.4005C936.007 76.1906 937.087 75.5856 938.5 75.5856ZM935.56 82.6257C935.56 84.2478 935.707 85.5176 936 86.435L940.44 77.5999C939.973 76.975 939.327 76.6626 938.5 76.6626C937.58 76.6626 936.86 77.1545 936.34 78.1384C935.82 79.109 935.56 80.6048 935.56 82.6257ZM938.5 88.5889C939.433 88.5889 940.16 88.1036 940.68 87.133C941.2 86.1491 941.46 84.6467 941.46 82.6257C941.46 80.9106 941.293 79.581 940.96 78.637L936.52 87.5518C937 88.2432 937.66 88.5889 938.5 88.5889Z" fill="url(#paint80_linear_175_198)"/>
<path d="M939.7 111.222H942.64V112.279H935.02V111.222H938.42V100.014L935.18 101.948L934.62 101.051L938.62 98.5778H939.7V111.222Z" fill="url(#paint81_linear_175_198)"/>
<path d="M939.7 134.015H942.64V135.072H935.02V134.015H938.42V122.807L935.18 124.741L934.62 123.844L938.62 121.371H939.7V134.015Z" fill="url(#paint82_linear_175_198)"/>
<path d="M938.5 143.964C939.927 143.964 941.006 144.569 941.74 145.779C942.486 146.976 942.86 148.717 942.86 151.004C942.86 153.291 942.486 155.039 941.74 156.249C941.006 157.459 939.927 158.064 938.5 158.064C937.087 158.064 936.007 157.459 935.26 156.249C934.514 155.039 934.14 153.291 934.14 151.004C934.14 148.731 934.514 146.989 935.26 145.779C936.007 144.569 937.087 143.964 938.5 143.964ZM935.56 151.004C935.56 152.626 935.707 153.896 936 154.813L940.44 145.978C939.973 145.353 939.327 145.041 938.5 145.041C937.58 145.041 936.86 145.533 936.34 146.517C935.82 147.487 935.56 148.983 935.56 151.004ZM938.5 156.967C939.433 156.967 940.16 156.482 940.68 155.511C941.2 154.528 941.46 153.025 941.46 151.004C941.46 149.289 941.293 147.959 940.96 147.015L936.52 155.93C937 156.622 937.66 156.967 938.5 156.967Z" fill="url(#paint83_linear_175_198)"/>
<path d="M939.7 179.601H942.64V180.658H935.02V179.601H938.42V168.392L935.18 170.327L934.62 169.429L938.62 166.956H939.7V179.601Z" fill="url(#paint84_linear_175_198)"/>
<path d="M939.7 202.393H942.64V203.45H935.02V202.393H938.42V191.185L935.18 193.12L934.62 192.222L938.62 189.749H939.7V202.393Z" fill="url(#paint85_linear_175_198)"/>
<path d="M938.5 212.342C939.927 212.342 941.006 212.947 941.74 214.157C942.486 215.354 942.86 217.096 942.86 219.383C942.86 221.669 942.486 223.418 941.74 224.628C941.006 225.838 939.927 226.443 938.5 226.443C937.087 226.443 936.007 225.838 935.26 224.628C934.514 223.418 934.14 221.669 934.14 219.383C934.14 217.109 934.514 215.367 935.26 214.157C936.007 212.947 937.087 212.342 938.5 212.342ZM935.56 219.383C935.56 221.005 935.707 222.274 936 223.192L940.44 214.357C939.973 213.732 939.327 213.419 938.5 213.419C937.58 213.419 936.86 213.911 936.34 214.895C935.82 215.866 935.56 217.362 935.56 219.383ZM938.5 225.346C939.433 225.346 940.16 224.86 940.68 223.89C941.2 222.906 941.46 221.404 941.46 219.383C941.46 217.667 941.293 216.338 940.96 215.394L936.52 224.309C937 225 937.66 225.346 938.5 225.346Z" fill="url(#paint86_linear_175_198)"/>
<path d="M939.7 247.979H942.64V249.036H935.02V247.979H938.42V236.771L935.18 238.705L934.62 237.808L938.62 235.335H939.7V247.979Z" fill="url(#paint87_linear_175_198)"/>
<path d="M938.5 257.928C939.927 257.928 941.006 258.533 941.74 259.743C942.486 260.94 942.86 262.681 942.86 264.968C942.86 267.255 942.486 269.003 941.74 270.213C941.006 271.423 939.927 272.028 938.5 272.028C937.087 272.028 936.007 271.423 935.26 270.213C934.514 269.003 934.14 267.255 934.14 264.968C934.14 262.695 934.514 260.953 935.26 259.743C936.007 258.533 937.087 257.928 938.5 257.928ZM935.56 264.968C935.56 266.59 935.707 267.86 936 268.777L940.44 259.942C939.973 259.317 939.327 259.005 938.5 259.005C937.58 259.005 936.86 259.497 936.34 260.481C935.82 261.451 935.56 262.947 935.56 264.968ZM938.5 270.931C939.433 270.931 940.16 270.446 940.68 269.475C941.2 268.492 941.46 266.989 941.46 264.968C941.46 263.253 941.293 261.923 940.96 260.979L936.52 269.894C937 270.586 937.66 270.931 938.5 270.931Z" fill="url(#paint88_linear_175_198)"/>
<path d="M975.64 52.7928C977.067 52.7928 978.147 53.3978 978.88 54.6077C979.627 55.8043 980 57.5461 980 59.8329C980 62.1198 979.627 63.8682 978.88 65.0781C978.147 66.288 977.067 66.893 975.64 66.893C974.227 66.893 973.147 66.288 972.401 65.0781C971.654 63.8682 971.281 62.1198 971.281 59.8329C971.281 57.5593 971.654 55.8176 972.401 54.6077C973.147 53.3978 974.227 52.7928 975.64 52.7928ZM972.7 59.8329C972.7 61.455 972.847 62.7248 973.14 63.6422L977.58 54.8071C977.114 54.1822 976.467 53.8698 975.64 53.8698C974.72 53.8698 974 54.3617 973.48 55.3456C972.96 56.3162 972.7 57.812 972.7 59.8329ZM975.64 65.7961C976.574 65.7961 977.3 65.3108 977.82 64.3402C978.34 63.3563 978.6 61.8539 978.6 59.8329C978.6 58.1178 978.433 56.7882 978.1 55.8442L973.66 64.759C974.14 65.4504 974.8 65.7961 975.64 65.7961Z" fill="url(#paint89_linear_175_198)"/>
<path d="M976.84 88.4293H979.78V89.4864H972.161V88.4293H975.56V77.221L972.321 79.1555L971.761 78.2581L975.76 75.785H976.84V88.4293Z" fill="url(#paint90_linear_175_198)"/>
<path d="M976.84 111.222H979.78V112.279H972.161V111.222H975.56V100.014L972.321 101.948L971.761 101.051L975.76 98.5778H976.84V111.222Z" fill="url(#paint91_linear_175_198)"/>
<path d="M975.64 121.171C977.067 121.171 978.147 121.776 978.88 122.986C979.627 124.183 980 125.924 980 128.211C980 130.498 979.627 132.247 978.88 133.457C978.147 134.666 977.067 135.271 975.64 135.271C974.227 135.271 973.147 134.666 972.401 133.457C971.654 132.247 971.281 130.498 971.281 128.211C971.281 125.938 971.654 124.196 972.401 122.986C973.147 121.776 974.227 121.171 975.64 121.171ZM972.7 128.211C972.7 129.833 972.847 131.103 973.14 132.021L977.58 123.186C977.114 122.561 976.467 122.248 975.64 122.248C974.72 122.248 974 122.74 973.48 123.724C972.96 124.695 972.7 126.19 972.7 128.211ZM975.64 134.174C976.574 134.174 977.3 133.689 977.82 132.719C978.34 131.735 978.6 130.232 978.6 128.211C978.6 126.496 978.433 125.167 978.1 124.223L973.66 133.137C974.14 133.829 974.8 134.174 975.64 134.174Z" fill="url(#paint92_linear_175_198)"/>
<path d="M975.64 143.964C977.067 143.964 978.147 144.569 978.88 145.779C979.627 146.976 980 148.717 980 151.004C980 153.291 979.627 155.039 978.88 156.249C978.147 157.459 977.067 158.064 975.64 158.064C974.227 158.064 973.147 157.459 972.401 156.249C971.654 155.039 971.281 153.291 971.281 151.004C971.281 148.731 971.654 146.989 972.401 145.779C973.147 144.569 974.227 143.964 975.64 143.964ZM972.7 151.004C972.7 152.626 972.847 153.896 973.14 154.813L977.58 145.978C977.114 145.353 976.467 145.041 975.64 145.041C974.72 145.041 974 145.533 973.48 146.517C972.96 147.487 972.7 148.983 972.7 151.004ZM975.64 156.967C976.574 156.967 977.3 156.482 977.82 155.511C978.34 154.528 978.6 153.025 978.6 151.004C978.6 149.289 978.433 147.959 978.1 147.015L973.66 155.93C974.14 156.622 974.8 156.967 975.64 156.967Z" fill="url(#paint93_linear_175_198)"/>
</g>
<defs>
<filter id="filter0_f_175_198" x="-558.19" y="-656.19" width="2141.38" height="1500.38" filterUnits="userSpaceOnUse" color-interpolation-filters="sRGB">
<feFlood flood-opacity="0" result="BackgroundImageFix"/>
<feBlend mode="normal" in="SourceGraphic" in2="BackgroundImageFix" result="shape"/>
<feGaussianBlur stdDeviation="200.095" result="effect1_foregroundBlur_175_198"/>
</filter>
<linearGradient id="paint0_linear_175_198" x1="52.5" y1="330" x2="52.5" y2="641.381" gradientUnits="userSpaceOnUse">
<stop stop-color="#F7DD43"/>
<stop offset="1" stop-color="#F7DD43" stop-opacity="0"/>
</linearGradient>
<linearGradient id="paint1_linear_175_198" x1="52.5" y1="330" x2="52.5" y2="641.381" gradientUnits="userSpaceOnUse">
<stop stop-color="#F7DD43"/>
<stop offset="1" stop-color="#F7DD43" stop-opacity="0"/>
</linearGradient>
<linearGradient id="paint2_linear_175_198" x1="52.5" y1="330" x2="52.5" y2="641.381" gradientUnits="userSpaceOnUse">
<stop stop-color="#F7DD43"/>
<stop offset="1" stop-color="#F7DD43" stop-opacity="0"/>
</linearGradient>
<linearGradient id="paint3_linear_175_198" x1="52.5" y1="330" x2="52.5" y2="641.381" gradientUnits="userSpaceOnUse">
<stop stop-color="#F7DD43"/>
<stop offset="1" stop-color="#F7DD43" stop-opacity="0"/>
</linearGradient>
<linearGradient id="paint4_linear_175_198" x1="52.5" y1="330" x2="52.5" y2="641.381" gradientUnits="userSpaceOnUse">
<stop stop-color="#F7DD43"/>
<stop offset="1" stop-color="#F7DD43" stop-opacity="0"/>
</linearGradient>
<linearGradient id="paint5_linear_175_198" x1="52.5" y1="330" x2="52.5" y2="641.381" gradientUnits="userSpaceOnUse">
<stop stop-color="#F7DD43"/>
<stop offset="1" stop-color="#F7DD43" stop-opacity="0"/>
</linearGradient>
<linearGradient id="paint6_linear_175_198" x1="52.5" y1="330" x2="52.5" y2="641.381" gradientUnits="userSpaceOnUse">
<stop stop-color="#F7DD43"/>
<stop offset="1" stop-color="#F7DD43" stop-opacity="0"/>
</linearGradient>
<linearGradient id="paint7_linear_175_198" x1="52.5" y1="330" x2="52.5" y2="641.381" gradientUnits="userSpaceOnUse">
<stop stop-color="#F7DD43"/>
<stop offset="1" stop-color="#F7DD43" stop-opacity="0"/>
</linearGradient>
<linearGradient id="paint8_linear_175_198" x1="52.5" y1="330" x2="52.5" y2="641.381" gradientUnits="userSpaceOnUse">
<stop stop-color="#F7DD43"/>
<stop offset="1" stop-color="#F7DD43" stop-opacity="0"/>
</linearGradient>
<linearGradient id="paint9_linear_175_198" x1="52.5" y1="330" x2="52.5" y2="641.381" gradientUnits="userSpaceOnUse">
<stop stop-color="#F7DD43"/>
<stop offset="1" stop-color="#F7DD43" stop-opacity="0"/>
</linearGradient>
<linearGradient id="paint10_linear_175_198" x1="52.5" y1="330" x2="52.5" y2="641.381" gradientUnits="userSpaceOnUse">
<stop stop-color="#F7DD43"/>
<stop offset="1" stop-color="#F7DD43" stop-opacity="0"/>
</linearGradient>
<linearGradient id="paint11_linear_175_198" x1="52.5" y1="330" x2="52.5" y2="641.381" gradientUnits="userSpaceOnUse">
<stop stop-color="#F7DD43"/>
<stop offset="1" stop-color="#F7DD43" stop-opacity="0"/>
</linearGradient>
<linearGradient id="paint12_linear_175_198" x1="52.5" y1="330" x2="52.5" y2="641.381" gradientUnits="userSpaceOnUse">
<stop stop-color="#F7DD43"/>
<stop offset="1" stop-color="#F7DD43" stop-opacity="0"/>
</linearGradient>
<linearGradient id="paint13_linear_175_198" x1="52.5" y1="330" x2="52.5" y2="641.381" gradientUnits="userSpaceOnUse">
<stop stop-color="#F7DD43"/>
<stop offset="1" stop-color="#F7DD43" stop-opacity="0"/>
</linearGradient>
<linearGradient id="paint14_linear_175_198" x1="52.5" y1="330" x2="52.5" y2="641.381" gradientUnits="userSpaceOnUse">
<stop stop-color="#F7DD43"/>
<stop offset="1" stop-color="#F7DD43" stop-opacity="0"/>
</linearGradient>
<linearGradient id="paint15_linear_175_198" x1="52.5" y1="330" x2="52.5" y2="641.381" gradientUnits="userSpaceOnUse">
<stop stop-color="#F7DD43"/>
<stop offset="1" stop-color="#F7DD43" stop-opacity="0"/>
</linearGradient>
<linearGradient id="paint16_linear_175_198" x1="52.5" y1="330" x2="52.5" y2="641.381" gradientUnits="userSpaceOnUse">
<stop stop-color="#F7DD43"/>
<stop offset="1" stop-color="#F7DD43" stop-opacity="0"/>
</linearGradient>
<linearGradient id="paint17_linear_175_198" x1="52.5" y1="330" x2="52.5" y2="641.381" gradientUnits="userSpaceOnUse">
<stop stop-color="#F7DD43"/>
<stop offset="1" stop-color="#F7DD43" stop-opacity="0"/>
</linearGradient>
<linearGradient id="paint18_linear_175_198" x1="52.5" y1="330" x2="52.5" y2="641.381" gradientUnits="userSpaceOnUse">
<stop stop-color="#F7DD43"/>
<stop offset="1" stop-color="#F7DD43" stop-opacity="0"/>
</linearGradient>
<linearGradient id="paint19_linear_175_198" x1="52.5" y1="330" x2="52.5" y2="641.381" gradientUnits="userSpaceOnUse">
<stop stop-color="#F7DD43"/>
<stop offset="1" stop-color="#F7DD43" stop-opacity="0"/>
</linearGradient>
<linearGradient id="paint20_linear_175_198" x1="52.5" y1="330" x2="52.5" y2="641.381" gradientUnits="userSpaceOnUse">
<stop stop-color="#F7DD43"/>
<stop offset="1" stop-color="#F7DD43" stop-opacity="0"/>
</linearGradient>
<linearGradient id="paint21_linear_175_198" x1="52.5" y1="330" x2="52.5" y2="641.381" gradientUnits="userSpaceOnUse">
<stop stop-color="#F7DD43"/>
<stop offset="1" stop-color="#F7DD43" stop-opacity="0"/>
</linearGradient>
<linearGradient id="paint22_linear_175_198" x1="52.5" y1="330" x2="52.5" y2="641.381" gradientUnits="userSpaceOnUse">
<stop stop-color="#F7DD43"/>
<stop offset="1" stop-color="#F7DD43" stop-opacity="0"/>
</linearGradient>
<linearGradient id="paint23_linear_175_198" x1="52.5" y1="330" x2="52.5" y2="641.381" gradientUnits="userSpaceOnUse">
<stop stop-color="#F7DD43"/>
<stop offset="1" stop-color="#F7DD43" stop-opacity="0"/>
</linearGradient>
<linearGradient id="paint24_linear_175_198" x1="52.5" y1="330" x2="52.5" y2="641.381" gradientUnits="userSpaceOnUse">
<stop stop-color="#F7DD43"/>
<stop offset="1" stop-color="#F7DD43" stop-opacity="0"/>
</linearGradient>
<linearGradient id="paint25_linear_175_198" x1="52.5" y1="330" x2="52.5" y2="641.381" gradientUnits="userSpaceOnUse">
<stop stop-color="#F7DD43"/>
<stop offset="1" stop-color="#F7DD43" stop-opacity="0"/>
</linearGradient>
<linearGradient id="paint26_linear_175_198" x1="52.5" y1="330" x2="52.5" y2="641.381" gradientUnits="userSpaceOnUse">
<stop stop-color="#F7DD43"/>
<stop offset="1" stop-color="#F7DD43" stop-opacity="0"/>
</linearGradient>
<linearGradient id="paint27_linear_175_198" x1="52.5" y1="330" x2="52.5" y2="641.381" gradientUnits="userSpaceOnUse">
<stop stop-color="#F7DD43"/>
<stop offset="1" stop-color="#F7DD43" stop-opacity="0"/>
</linearGradient>
<linearGradient id="paint28_linear_175_198" x1="52.5" y1="330" x2="52.5" y2="641.381" gradientUnits="userSpaceOnUse">
<stop stop-color="#F7DD43"/>
<stop offset="1" stop-color="#F7DD43" stop-opacity="0"/>
</linearGradient>
<linearGradient id="paint29_linear_175_198" x1="52.5" y1="330" x2="52.5" y2="641.381" gradientUnits="userSpaceOnUse">
<stop stop-color="#F7DD43"/>
<stop offset="1" stop-color="#F7DD43" stop-opacity="0"/>
</linearGradient>
<linearGradient id="paint30_linear_175_198" x1="52.5" y1="330" x2="52.5" y2="641.381" gradientUnits="userSpaceOnUse">
<stop stop-color="#F7DD43"/>
<stop offset="1" stop-color="#F7DD43" stop-opacity="0"/>
</linearGradient>
<linearGradient id="paint31_linear_175_198" x1="52.5" y1="330" x2="52.5" y2="641.381" gradientUnits="userSpaceOnUse">
<stop stop-color="#F7DD43"/>
<stop offset="1" stop-color="#F7DD43" stop-opacity="0"/>
</linearGradient>
<linearGradient id="paint32_linear_175_198" x1="52.5" y1="330" x2="52.5" y2="641.381" gradientUnits="userSpaceOnUse">
<stop stop-color="#F7DD43"/>
<stop offset="1" stop-color="#F7DD43" stop-opacity="0"/>
</linearGradient>
<linearGradient id="paint33_linear_175_198" x1="52.5" y1="330" x2="52.5" y2="641.381" gradientUnits="userSpaceOnUse">
<stop stop-color="#F7DD43"/>
<stop offset="1" stop-color="#F7DD43" stop-opacity="0"/>
</linearGradient>
<linearGradient id="paint34_linear_175_198" x1="52.5" y1="330" x2="52.5" y2="641.381" gradientUnits="userSpaceOnUse">
<stop stop-color="#F7DD43"/>
<stop offset="1" stop-color="#F7DD43" stop-opacity="0"/>
</linearGradient>
<linearGradient id="paint35_linear_175_198" x1="52.5" y1="330" x2="52.5" y2="641.381" gradientUnits="userSpaceOnUse">
<stop stop-color="#F7DD43"/>
<stop offset="1" stop-color="#F7DD43" stop-opacity="0"/>
</linearGradient>
<linearGradient id="paint36_linear_175_198" x1="52.5" y1="330" x2="52.5" y2="641.381" gradientUnits="userSpaceOnUse">
<stop stop-color="#F7DD43"/>
<stop offset="1" stop-color="#F7DD43" stop-opacity="0"/>
</linearGradient>
<linearGradient id="paint37_linear_175_198" x1="52.5" y1="330" x2="52.5" y2="641.381" gradientUnits="userSpaceOnUse">
<stop stop-color="#F7DD43"/>
<stop offset="1" stop-color="#F7DD43" stop-opacity="0"/>
</linearGradient>
<linearGradient id="paint38_linear_175_198" x1="52.5" y1="330" x2="52.5" y2="641.381" gradientUnits="userSpaceOnUse">
<stop stop-color="#F7DD43"/>
<stop offset="1" stop-color="#F7DD43" stop-opacity="0"/>
</linearGradient>
<linearGradient id="paint39_linear_175_198" x1="52.5" y1="330" x2="52.5" y2="641.381" gradientUnits="userSpaceOnUse">
<stop stop-color="#F7DD43"/>
<stop offset="1" stop-color="#F7DD43" stop-opacity="0"/>
</linearGradient>
<linearGradient id="paint40_linear_175_198" x1="52.5" y1="330" x2="52.5" y2="641.381" gradientUnits="userSpaceOnUse">
<stop stop-color="#F7DD43"/>
<stop offset="1" stop-color="#F7DD43" stop-opacity="0"/>
</linearGradient>
<linearGradient id="paint41_linear_175_198" x1="52.5" y1="330" x2="52.5" y2="641.381" gradientUnits="userSpaceOnUse">
<stop stop-color="#F7DD43"/>
<stop offset="1" stop-color="#F7DD43" stop-opacity="0"/>
</linearGradient>
<linearGradient id="paint42_linear_175_198" x1="52.5" y1="330" x2="52.5" y2="641.381" gradientUnits="userSpaceOnUse">
<stop stop-color="#F7DD43"/>
<stop offset="1" stop-color="#F7DD43" stop-opacity="0"/>
</linearGradient>
<linearGradient id="paint43_linear_175_198" x1="52.5" y1="330" x2="52.5" y2="641.381" gradientUnits="userSpaceOnUse">
<stop stop-color="#F7DD43"/>
<stop offset="1" stop-color="#F7DD43" stop-opacity="0"/>
</linearGradient>
<linearGradient id="paint44_linear_175_198" x1="52.5" y1="330" x2="52.5" y2="641.381" gradientUnits="userSpaceOnUse">
<stop stop-color="#F7DD43"/>
<stop offset="1" stop-color="#F7DD43" stop-opacity="0"/>
</linearGradient>
<linearGradient id="paint45_linear_175_198" x1="52.5" y1="330" x2="52.5" y2="641.381" gradientUnits="userSpaceOnUse">
<stop stop-color="#F7DD43"/>
<stop offset="1" stop-color="#F7DD43" stop-opacity="0"/>
</linearGradient>
<linearGradient id="paint46_linear_175_198" x1="52.5" y1="330" x2="52.5" y2="641.381" gradientUnits="userSpaceOnUse">
<stop stop-color="#F7DD43"/>
<stop offset="1" stop-color="#F7DD43" stop-opacity="0"/>
</linearGradient>
<linearGradient id="paint47_linear_175_198" x1="938.5" y1="30" x2="938.5" y2="328.818" gradientUnits="userSpaceOnUse">
<stop stop-color="#F7DD43"/>
<stop offset="1" stop-color="#F7DD43" stop-opacity="0"/>
</linearGradient>
<linearGradient id="paint48_linear_175_198" x1="938.5" y1="30" x2="938.5" y2="328.818" gradientUnits="userSpaceOnUse">
<stop stop-color="#F7DD43"/>
<stop offset="1" stop-color="#F7DD43" stop-opacity="0"/>
</linearGradient>
<linearGradient id="paint49_linear_175_198" x1="938.5" y1="30" x2="938.5" y2="328.818" gradientUnits="userSpaceOnUse">
<stop stop-color="#F7DD43"/>
<stop offset="1" stop-color="#F7DD43" stop-opacity="0"/>
</linearGradient>
<linearGradient id="paint50_linear_175_198" x1="938.5" y1="30" x2="938.5" y2="328.818" gradientUnits="userSpaceOnUse">
<stop stop-color="#F7DD43"/>
<stop offset="1" stop-color="#F7DD43" stop-opacity="0"/>
</linearGradient>
<linearGradient id="paint51_linear_175_198" x1="938.5" y1="30" x2="938.5" y2="328.818" gradientUnits="userSpaceOnUse">
<stop stop-color="#F7DD43"/>
<stop offset="1" stop-color="#F7DD43" stop-opacity="0"/>
</linearGradient>
<linearGradient id="paint52_linear_175_198" x1="938.5" y1="30" x2="938.5" y2="328.818" gradientUnits="userSpaceOnUse">
<stop stop-color="#F7DD43"/>
<stop offset="1" stop-color="#F7DD43" stop-opacity="0"/>
</linearGradient>
<linearGradient id="paint53_linear_175_198" x1="938.5" y1="30" x2="938.5" y2="328.818" gradientUnits="userSpaceOnUse">
<stop stop-color="#F7DD43"/>
<stop offset="1" stop-color="#F7DD43" stop-opacity="0"/>
</linearGradient>
<linearGradient id="paint54_linear_175_198" x1="938.5" y1="30" x2="938.5" y2="328.818" gradientUnits="userSpaceOnUse">
<stop stop-color="#F7DD43"/>
<stop offset="1" stop-color="#F7DD43" stop-opacity="0"/>
</linearGradient>
<linearGradient id="paint55_linear_175_198" x1="938.5" y1="30" x2="938.5" y2="328.818" gradientUnits="userSpaceOnUse">
<stop stop-color="#F7DD43"/>
<stop offset="1" stop-color="#F7DD43" stop-opacity="0"/>
</linearGradient>
<linearGradient id="paint56_linear_175_198" x1="938.5" y1="30" x2="938.5" y2="328.818" gradientUnits="userSpaceOnUse">
<stop stop-color="#F7DD43"/>
<stop offset="1" stop-color="#F7DD43" stop-opacity="0"/>
</linearGradient>
<linearGradient id="paint57_linear_175_198" x1="938.5" y1="30" x2="938.5" y2="328.818" gradientUnits="userSpaceOnUse">
<stop stop-color="#F7DD43"/>
<stop offset="1" stop-color="#F7DD43" stop-opacity="0"/>
</linearGradient>
<linearGradient id="paint58_linear_175_198" x1="938.5" y1="30" x2="938.5" y2="328.818" gradientUnits="userSpaceOnUse">
<stop stop-color="#F7DD43"/>
<stop offset="1" stop-color="#F7DD43" stop-opacity="0"/>
</linearGradient>
<linearGradient id="paint59_linear_175_198" x1="938.5" y1="30" x2="938.5" y2="328.818" gradientUnits="userSpaceOnUse">
<stop stop-color="#F7DD43"/>
<stop offset="1" stop-color="#F7DD43" stop-opacity="0"/>
</linearGradient>
<linearGradient id="paint60_linear_175_198" x1="938.5" y1="30" x2="938.5" y2="328.818" gradientUnits="userSpaceOnUse">
<stop stop-color="#F7DD43"/>
<stop offset="1" stop-color="#F7DD43" stop-opacity="0"/>
</linearGradient>
<linearGradient id="paint61_linear_175_198" x1="938.5" y1="30" x2="938.5" y2="328.818" gradientUnits="userSpaceOnUse">
<stop stop-color="#F7DD43"/>
<stop offset="1" stop-color="#F7DD43" stop-opacity="0"/>
</linearGradient>
<linearGradient id="paint62_linear_175_198" x1="938.5" y1="30" x2="938.5" y2="328.818" gradientUnits="userSpaceOnUse">
<stop stop-color="#F7DD43"/>
<stop offset="1" stop-color="#F7DD43" stop-opacity="0"/>
</linearGradient>
<linearGradient id="paint63_linear_175_198" x1="938.5" y1="30" x2="938.5" y2="328.818" gradientUnits="userSpaceOnUse">
<stop stop-color="#F7DD43"/>
<stop offset="1" stop-color="#F7DD43" stop-opacity="0"/>
</linearGradient>
<linearGradient id="paint64_linear_175_198" x1="938.5" y1="30" x2="938.5" y2="328.818" gradientUnits="userSpaceOnUse">
<stop stop-color="#F7DD43"/>
<stop offset="1" stop-color="#F7DD43" stop-opacity="0"/>
</linearGradient>
<linearGradient id="paint65_linear_175_198" x1="938.5" y1="30" x2="938.5" y2="328.818" gradientUnits="userSpaceOnUse">
<stop stop-color="#F7DD43"/>
<stop offset="1" stop-color="#F7DD43" stop-opacity="0"/>
</linearGradient>
<linearGradient id="paint66_linear_175_198" x1="938.5" y1="30" x2="938.5" y2="328.818" gradientUnits="userSpaceOnUse">
<stop stop-color="#F7DD43"/>
<stop offset="1" stop-color="#F7DD43" stop-opacity="0"/>
</linearGradient>
<linearGradient id="paint67_linear_175_198" x1="938.5" y1="30" x2="938.5" y2="328.818" gradientUnits="userSpaceOnUse">
<stop stop-color="#F7DD43"/>
<stop offset="1" stop-color="#F7DD43" stop-opacity="0"/>
</linearGradient>
<linearGradient id="paint68_linear_175_198" x1="938.5" y1="30" x2="938.5" y2="328.818" gradientUnits="userSpaceOnUse">
<stop stop-color="#F7DD43"/>
<stop offset="1" stop-color="#F7DD43" stop-opacity="0"/>
</linearGradient>
<linearGradient id="paint69_linear_175_198" x1="938.5" y1="30" x2="938.5" y2="328.818" gradientUnits="userSpaceOnUse">
<stop stop-color="#F7DD43"/>
<stop offset="1" stop-color="#F7DD43" stop-opacity="0"/>
</linearGradient>
<linearGradient id="paint70_linear_175_198" x1="938.5" y1="30" x2="938.5" y2="328.818" gradientUnits="userSpaceOnUse">
<stop stop-color="#F7DD43"/>
<stop offset="1" stop-color="#F7DD43" stop-opacity="0"/>
</linearGradient>
<linearGradient id="paint71_linear_175_198" x1="938.5" y1="30" x2="938.5" y2="328.818" gradientUnits="userSpaceOnUse">
<stop stop-color="#F7DD43"/>
<stop offset="1" stop-color="#F7DD43" stop-opacity="0"/>
</linearGradient>
<linearGradient id="paint72_linear_175_198" x1="938.5" y1="30" x2="938.5" y2="328.818" gradientUnits="userSpaceOnUse">
<stop stop-color="#F7DD43"/>
<stop offset="1" stop-color="#F7DD43" stop-opacity="0"/>
</linearGradient>
<linearGradient id="paint73_linear_175_198" x1="938.5" y1="30" x2="938.5" y2="328.818" gradientUnits="userSpaceOnUse">
<stop stop-color="#F7DD43"/>
<stop offset="1" stop-color="#F7DD43" stop-opacity="0"/>
</linearGradient>
<linearGradient id="paint74_linear_175_198" x1="938.5" y1="30" x2="938.5" y2="328.818" gradientUnits="userSpaceOnUse">
<stop stop-color="#F7DD43"/>
<stop offset="1" stop-color="#F7DD43" stop-opacity="0"/>
</linearGradient>
<linearGradient id="paint75_linear_175_198" x1="938.5" y1="30" x2="938.5" y2="328.818" gradientUnits="userSpaceOnUse">
<stop stop-color="#F7DD43"/>
<stop offset="1" stop-color="#F7DD43" stop-opacity="0"/>
</linearGradient>
<linearGradient id="paint76_linear_175_198" x1="938.5" y1="30" x2="938.5" y2="328.818" gradientUnits="userSpaceOnUse">
<stop stop-color="#F7DD43"/>
<stop offset="1" stop-color="#F7DD43" stop-opacity="0"/>
</linearGradient>
<linearGradient id="paint77_linear_175_198" x1="938.5" y1="30" x2="938.5" y2="328.818" gradientUnits="userSpaceOnUse">
<stop stop-color="#F7DD43"/>
<stop offset="1" stop-color="#F7DD43" stop-opacity="0"/>
</linearGradient>
<linearGradient id="paint78_linear_175_198" x1="938.5" y1="30" x2="938.5" y2="328.818" gradientUnits="userSpaceOnUse">
<stop stop-color="#F7DD43"/>
<stop offset="1" stop-color="#F7DD43" stop-opacity="0"/>
</linearGradient>
<linearGradient id="paint79_linear_175_198" x1="938.5" y1="30" x2="938.5" y2="328.818" gradientUnits="userSpaceOnUse">
<stop stop-color="#F7DD43"/>
<stop offset="1" stop-color="#F7DD43" stop-opacity="0"/>
</linearGradient>
<linearGradient id="paint80_linear_175_198" x1="938.5" y1="30" x2="938.5" y2="328.818" gradientUnits="userSpaceOnUse">
<stop stop-color="#F7DD43"/>
<stop offset="1" stop-color="#F7DD43" stop-opacity="0"/>
</linearGradient>
<linearGradient id="paint81_linear_175_198" x1="938.5" y1="30" x2="938.5" y2="328.818" gradientUnits="userSpaceOnUse">
<stop stop-color="#F7DD43"/>
<stop offset="1" stop-color="#F7DD43" stop-opacity="0"/>
</linearGradient>
<linearGradient id="paint82_linear_175_198" x1="938.5" y1="30" x2="938.5" y2="328.818" gradientUnits="userSpaceOnUse">
<stop stop-color="#F7DD43"/>
<stop offset="1" stop-color="#F7DD43" stop-opacity="0"/>
</linearGradient>
<linearGradient id="paint83_linear_175_198" x1="938.5" y1="30" x2="938.5" y2="328.818" gradientUnits="userSpaceOnUse">
<stop stop-color="#F7DD43"/>
<stop offset="1" stop-color="#F7DD43" stop-opacity="0"/>
</linearGradient>
<linearGradient id="paint84_linear_175_198" x1="938.5" y1="30" x2="938.5" y2="328.818" gradientUnits="userSpaceOnUse">
<stop stop-color="#F7DD43"/>
<stop offset="1" stop-color="#F7DD43" stop-opacity="0"/>
</linearGradient>
<linearGradient id="paint85_linear_175_198" x1="938.5" y1="30" x2="938.5" y2="328.818" gradientUnits="userSpaceOnUse">
<stop stop-color="#F7DD43"/>
<stop offset="1" stop-color="#F7DD43" stop-opacity="0"/>
</linearGradient>
<linearGradient id="paint86_linear_175_198" x1="938.5" y1="30" x2="938.5" y2="328.818" gradientUnits="userSpaceOnUse">
<stop stop-color="#F7DD43"/>
<stop offset="1" stop-color="#F7DD43" stop-opacity="0"/>
</linearGradient>
<linearGradient id="paint87_linear_175_198" x1="938.5" y1="30" x2="938.5" y2="328.818" gradientUnits="userSpaceOnUse">
<stop stop-color="#F7DD43"/>
<stop offset="1" stop-color="#F7DD43" stop-opacity="0"/>
</linearGradient>
<linearGradient id="paint88_linear_175_198" x1="938.5" y1="30" x2="938.5" y2="328.818" gradientUnits="userSpaceOnUse">
<stop stop-color="#F7DD43"/>
<stop offset="1" stop-color="#F7DD43" stop-opacity="0"/>
</linearGradient>
<linearGradient id="paint89_linear_175_198" x1="938.5" y1="30" x2="938.5" y2="328.818" gradientUnits="userSpaceOnUse">
<stop stop-color="#F7DD43"/>
<stop offset="1" stop-color="#F7DD43" stop-opacity="0"/>
</linearGradient>
<linearGradient id="paint90_linear_175_198" x1="938.5" y1="30" x2="938.5" y2="328.818" gradientUnits="userSpaceOnUse">
<stop stop-color="#F7DD43"/>
<stop offset="1" stop-color="#F7DD43" stop-opacity="0"/>
</linearGradient>
<linearGradient id="paint91_linear_175_198" x1="938.5" y1="30" x2="938.5" y2="328.818" gradientUnits="userSpaceOnUse">
<stop stop-color="#F7DD43"/>
<stop offset="1" stop-color="#F7DD43" stop-opacity="0"/>
</linearGradient>
<linearGradient id="paint92_linear_175_198" x1="938.5" y1="30" x2="938.5" y2="328.818" gradientUnits="userSpaceOnUse">
<stop stop-color="#F7DD43"/>
<stop offset="1" stop-color="#F7DD43" stop-opacity="0"/>
</linearGradient>
<linearGradient id="paint93_linear_175_198" x1="938.5" y1="30" x2="938.5" y2="328.818" gradientUnits="userSpaceOnUse">
<stop stop-color="#F7DD43"/>
<stop offset="1" stop-color="#F7DD43" stop-opacity="0"/>
</linearGradient>
</defs>
</svg>
